<?xml version="1.0" encoding="UTF-8"?>
<svg id="Layer_1" data-name="Layer 1" xmlns="http://www.w3.org/2000/svg" viewBox="0 0 663.73 207.32">
  <defs>
    <style>
      .cls-1 {
        fill: #060f4c;
        stroke-width: 0px;
      }
    </style>
  </defs>
  <g>
    <path class="cls-1" d="M577.53,170.25c-18.43,0-36.63-4.74-52.63-13.7l-4.23-2.37.61-4.81c4.17-33.08,23.94-62.84,52.9-79.61l3.6-2.09,3.6,2.08c28.9,16.71,48.68,46.31,52.91,79.2l.61,4.77-4.17,2.39c-16.13,9.24-34.52,14.12-53.2,14.12ZM536.31,146.3c12.76,6.27,26.91,9.57,41.22,9.57s28.86-3.41,41.74-9.89c-4.63-25.15-19.78-47.65-41.47-61.55-21.74,13.96-36.89,36.58-41.49,61.88Z"/>
    <path class="cls-1" d="M643.6,143.98c2.72,0,4.96,2.19,4.96,4.98s-2.15,4.98-4.96,4.98c-2.65,0-4.96-2.15-4.96-4.98,0-2.68,2.15-4.98,4.96-4.98ZM643.6,153.22c2.4,0,4.24-1.96,4.24-4.27s-1.91-4.26-4.23-4.26-4.26,1.91-4.26,4.27,1.94,4.26,4.24,4.26ZM645.74,151.54c-.72.25-1.15.36-1.79.36-2.05,0-3.13-1.21-3.13-2.88,0-1.46.97-2.91,3.09-2.91.57,0,1.16.08,1.79.3v1.4c-.51-.24-.97-.36-1.44-.36-1.1,0-1.71.65-1.71,1.54s.68,1.55,1.75,1.55c.39,0,.78-.08,1.44-.37v1.37Z"/>
    <g>
      <path class="cls-1" d="M75.33,78.07v20.57c-9.2-6.64-17.89-9.96-25.68-9.96-6.77,0-9.33,2.94-9.33,6.52,0,3.83,3.07,5.88,12.65,10.35,12.77,6,26.06,12.39,26.06,28.23s-13.54,26.44-32.58,26.44c-10.09,0-20.82-2.68-30.53-6.9v-21.46c10.73,7.15,19.16,9.58,26.44,9.58,8.05,0,10.6-3.45,10.6-6.39,0-3.7-1.79-6-14.31-11.5-8.05-3.7-23.51-10.35-23.51-27.59,0-13.8,10.22-25.17,31.17-25.17,11.11,0,21.85,3.07,29,7.28Z"/>
      <path class="cls-1" d="M156.96,127.89v4.6h-44.71c1.66,7.79,9.2,13.29,18.01,13.29,8.3,0,16.74-2.43,25.04-6.39v14.05c-7.79,4.22-17.76,6.77-29.77,6.77-22.87,0-36.41-13.54-36.41-33.47s13.54-32.83,36.28-32.83c16.99,0,31.55,10.99,31.55,33.98ZM135.88,121.38c0-8.43-4.47-13.54-11.75-13.54s-12.52,5.24-12.52,13.54h24.27Z"/>
      <path class="cls-1" d="M221.34,97.61v17.89c-6.64-2.94-13.16-3.58-17.12-3.58-8.3,0-15.33,5.24-15.33,14.95s7.28,15.33,15.33,15.33c3.83,0,9.58-.64,18.14-3.83v17.76c-8.18,3.07-13.92,4.09-21.46,4.09-29,0-35.64-21.85-35.64-33.34,0-10.73,6.13-32.96,35.64-32.96,7.15,0,12.9.89,20.44,3.7Z"/>
      <path class="cls-1" d="M235.91,71.94h15.17c28.49,0,46.89,17.76,46.89,42.67,0,27.08-19.16,44.46-46.89,44.46h-15.17v-87.13ZM250.94,150.38c22.87,0,37.05-13.54,37.05-35s-13.8-34.88-38.45-34.88h-4.05v69.88h5.46Z"/>
      <path class="cls-1" d="M358.63,153.44c-7.28,4.98-13.92,6.77-21.72,6.77-15.59,0-28.11-11.63-28.11-30.02,0-16.99,10.22-29.64,26.19-29.64,14.56,0,24.15,10.73,24.53,29.51h-41.78v.89c0,10.22,6.9,21.08,20.31,21.08,7.41,0,14.44-2.55,20.57-7.15v8.56ZM350.84,124.57c-1.02-10.22-6.39-16.35-15.97-16.35-9.07,0-15.84,7.03-16.86,16.35h32.83Z"/>
      <path class="cls-1" d="M380.99,71.94v87.13h-8.69v-87.13h8.69Z"/>
      <path class="cls-1" d="M389.16,101.7h11.11v-8.94l8.69-8.69v17.63h17.76v7.79h-17.76v30.66c0,7.03,1.15,12.14,8.3,12.14,4.22,0,8.43-1.53,12.01-3.7v8.18c-3.83,2.3-9.2,3.45-13.16,3.45-11.11,0-15.84-5.62-15.84-20.06v-30.66h-11.11v-7.79Z"/>
      <path class="cls-1" d="M487.28,144.75c0,5.11,2.81,7.15,6.26,9.33l-6,6.13c-3.19-2.17-5.88-5.11-7.03-8.43-5.62,5.37-11.5,8.43-19.42,8.43-15.46,0-25.42-12.14-25.42-29.51s11.88-29,30.02-29h21.59v43.05ZM467.09,109.37c-13.03,0-22.48,6.52-22.48,21.21,0,12.39,6.13,21.97,17.12,21.97,6.13,0,10.99-1.92,16.86-7.41v-35.77h-11.5Z"/>
    </g>
  </g>
  <path class="cls-1" d="M619.81,61.02c-1.65,9.09-4.7,17.87-8.93,26.06,3.5,3.84,6.73,7.91,9.66,12.18,7.49-12.62,12.45-26.7,14.29-41.32l.61-4.81-4.23-2.37c-16-8.96-34.2-13.7-52.63-13.7s-37.08,4.88-53.2,14.12l-4.17,2.39.61,4.77c2.6,20.2,11.08,39.16,23.93,54.65,2.59-4.25,5.5-8.31,8.72-12.12-8.83-11.56-14.96-25.1-17.62-39.53,12.88-6.49,27.21-9.89,41.74-9.89s28.47,3.3,41.22,9.57Z"/>
  <path class="cls-1" d="M606.56,94.62c-3.74,5.84-8.12,11.28-13.1,16.18-4.62,4.55-9.7,8.61-15.14,12.1-6.86-4.4-13.02-9.7-18.44-15.64-3.12,3.82-5.9,7.9-8.34,12.18,6.81,7.01,14.58,13.14,23.18,18.11l3.6,2.08,3.6-2.09c7.86-4.55,15.14-10.1,21.63-16.49,4.46-4.39,8.49-9.16,12.1-14.22-2.73-4.28-5.77-8.37-9.1-12.22Z"/>
</svg>